# 66 vertices, 64 faces
v -0.000000 -0.420722 0.102004
vn -0.000000 -0.507280 0.861781
v 0.309985 0.109132 0.095238
vn 0.442996 0.157660 0.882552
v 0.095435 -0.094373 0.245156
vn 0.457059 -0.281266 0.843793
v -0.095435 -0.094373 0.245156
vn -0.457059 -0.281266 0.843793
v -0.309985 0.109132 0.095238
vn -0.442996 0.157660 0.882552
v -0.249136 -0.465817 -0.094894
vn -0.697567 -0.652320 -0.296443
v 0.249136 -0.465817 -0.094894
vn 0.697567 -0.652320 -0.296443
v 0.493501 0.166818 -0.122771
vn 0.909701 -0.047878 -0.412495
v 0.272493 0.397872 -0.120888
vn 0.178421 0.969769 -0.166472
v -0.272493 0.397872 -0.120888
vn -0.178421 0.969769 -0.166472
v -0.493501 0.166818 -0.122771
vn -0.909701 -0.047878 -0.412495
v 0.000000 0.032456 0.245156
vn -0.000000 0.600003 0.799998
v 0.000000 0.038037 -0.514140
vn -0.000000 -0.000000 -1.000000
v 0.296351 0.328807 0.004057
vn 0.077989 0.603884 0.793248
v 0.000000 0.429265 -0.106447
vn -0.000000 0.997630 0.068804
v -0.296351 0.328807 0.004057
vn -0.077989 0.603884 0.793248
v 0.000000 0.188166 0.094469
vn -0.000000 0.563339 0.826226
v 0.185848 -0.208644 0.102004
vn 0.563492 -0.319938 0.761654
v 0.200916 -0.012750 0.192416
vn 0.693597 -0.227796 0.683398
v 0.070321 -0.243804 0.192416
vn 0.505403 -0.466277 0.726053
v 0.000000 -0.113209 0.267760
vn -0.000000 -0.316229 0.948683
v -0.070321 -0.243804 0.192416
vn -0.505403 -0.466277 0.726053
v -0.200916 -0.012750 0.192416
vn -0.693597 -0.227796 0.683398
v -0.185848 -0.208644 0.102004
vn -0.563492 -0.319938 0.761654
v -0.070321 -0.017773 0.267760
vn -0.257900 0.194062 0.946482
v -0.130596 0.082685 0.192416
vn -0.129837 0.747907 0.650982
v 0.130596 0.082685 0.192416
vn 0.129837 0.747907 0.650982
v 0.070321 -0.017773 0.267760
vn 0.257900 0.194062 0.946482
v -0.457084 0.343876 -0.113981
vn -0.659970 0.634553 -0.402222
v -0.482199 0.168074 -0.003477
vn -0.769660 -0.040507 0.637168
v -0.431970 -0.133300 -0.113981
vn -0.869522 -0.351170 -0.347292
v -0.331512 -0.218690 0.011591
vn -0.574276 -0.311183 0.757213
v -0.130596 -0.515041 0.011591
vn -0.455621 -0.547501 0.701892
v 0.000000 -0.565270 -0.113981
vn -0.000000 -0.822191 -0.569211
v 0.130596 -0.515041 0.011591
vn 0.455621 -0.547501 0.701892
v 0.431970 -0.133300 -0.113981
vn 0.869522 -0.351170 -0.347292
v 0.482199 0.168074 -0.003477
vn 0.769660 -0.040507 0.637168
v 0.331512 -0.218690 0.011591
vn 0.574276 -0.311183 0.757213
v 0.457084 0.343876 -0.113981
vn 0.659970 0.634553 -0.402222
v 0.155710 -0.278964 -0.329966
vn 0.420412 -0.448440 -0.788768
v -0.155710 -0.278964 -0.329966
vn -0.420412 -0.448440 -0.788768
v 0.331512 0.117845 -0.329966
vn 0.626296 -0.032964 -0.778888
v 0.175802 0.293647 -0.329966
vn 0.158006 0.671521 -0.723943
v -0.175802 0.293647 -0.329966
vn -0.158006 0.671521 -0.723943
v -0.331512 0.117845 -0.329966
vn -0.626296 -0.032964 -0.778888
v 0.000000 0.333830 0.011591
vn -0.000000 0.640185 0.768221
v 0.160733 -0.148369 0.162279
vn 0.640343 -0.361931 0.677470
v 0.000000 -0.228735 0.222553
vn -0.000000 -0.499726 0.866183
v -0.160733 -0.148369 0.162279
vn -0.640343 -0.361931 0.677470
v -0.160733 0.032456 0.222553
vn -0.460286 0.339156 0.820433
v 0.000000 0.112822 0.162279
vn -0.000000 0.680452 0.732792
v 0.160733 0.032456 0.222553
vn 0.460286 0.339156 0.820433
v 0.000000 -0.047911 0.282828
vn -0.000000 -0.000000 1.000000
v -0.462107 0.313738 -0.018546
vn -0.475101 0.515925 0.712812
v -0.442016 -0.068002 -0.018546
vn -0.834012 -0.307080 0.458395
v 0.000000 -0.590385 -0.018546
vn -0.000000 -0.928476 0.371392
v 0.442016 -0.068002 -0.018546
vn 0.834012 -0.307080 0.458395
v 0.462107 0.313738 -0.018546
vn 0.475101 0.515925 0.712812
v -0.221008 -0.329194 0.041729
vn -0.482037 -0.326805 0.812920
v 0.221008 -0.329194 0.041729
vn 0.482037 -0.326805 0.812920
v 0.000000 -0.409560 -0.279737
vn -0.000000 -0.602238 -0.798316
v 0.321466 -0.108186 -0.279737
vn 0.680851 -0.301644 -0.667423
v 0.341558 0.273555 -0.279737
vn 0.496325 0.439601 -0.748607
v 0.000000 0.353922 -0.279737
vn -0.000000 0.854940 -0.518727
v -0.341558 0.273555 -0.279737
vn -0.496325 0.439601 -0.748607
v -0.321466 -0.108186 -0.279737
vn -0.680851 -0.301644 -0.667423
f 46//46 17//17 2//2 14//14
f 46//46 14//14 9//9 15//15
f 46//46 15//15 10//10 16//16
f 46//46 16//16 5//5 17//17
f 47//47 20//20 1//1 18//18
f 47//47 18//18 2//2 19//19
f 47//47 19//19 3//3 20//20
f 48//48 22//22 1//1 20//20
f 48//48 20//20 3//3 21//21
f 48//48 21//21 4//4 22//22
f 49//49 24//24 1//1 22//22
f 49//49 22//22 4//4 23//23
f 49//49 23//23 5//5 24//24
f 50//50 23//23 4//4 25//25
f 50//50 25//25 12//12 26//26
f 50//50 26//26 5//5 23//23
f 51//51 26//26 12//12 27//27
f 51//51 27//27 2//2 17//17
f 51//51 17//17 5//5 26//26
f 52//52 28//28 3//3 19//19
f 52//52 19//19 2//2 27//27
f 52//52 27//27 12//12 28//28
f 53//53 21//21 3//3 28//28
f 53//53 28//28 12//12 25//25
f 53//53 25//25 4//4 21//21
f 54//54 30//30 5//5 16//16
f 54//54 16//16 10//10 29//29
f 54//54 29//29 11//11 30//30
f 55//55 32//32 5//5 30//30
f 55//55 30//30 11//11 31//31
f 55//55 31//31 6//6 32//32
f 56//56 35//35 1//1 33//33
f 56//56 33//33 6//6 34//34
f 56//56 34//34 7//7 35//35
f 57//57 38//38 7//7 36//36
f 57//57 36//36 8//8 37//37
f 57//57 37//37 2//2 38//38
f 58//58 37//37 8//8 39//39
f 58//58 39//39 9//9 14//14
f 58//58 14//14 2//2 37//37
f 59//59 24//24 5//5 32//32
f 59//59 32//32 6//6 33//33
f 59//59 33//33 1//1 24//24
f 60//60 18//18 1//1 35//35
f 60//60 35//35 7//7 38//38
f 60//60 38//38 2//2 18//18
f 61//61 41//41 13//13 40//40
f 61//61 40//40 7//7 34//34
f 61//61 34//34 6//6 41//41
f 62//62 40//40 13//13 42//42
f 62//62 42//42 8//8 36//36
f 62//62 36//36 7//7 40//40
f 63//63 42//42 13//13 43//43
f 63//63 43//43 9//9 39//39
f 63//63 39//39 8//8 42//42
f 64//64 43//43 13//13 44//44
f 64//64 44//44 10//10 15//15
f 64//64 15//15 9//9 43//43
f 65//65 44//44 13//13 45//45
f 65//65 45//45 11//11 29//29
f 65//65 29//29 10//10 44//44
f 66//66 45//45 13//13 41//41
f 66//66 41//41 6//6 31//31
f 66//66 31//31 11//11 45//45
