# 20 vertices, 18 faces
v -0.500000 -0.500000 -0.500000
vn -0.577350 -0.577350 -0.577350
v 0.500000 -0.500000 -0.500000
vn -0.000000 -0.707107 -0.707107
v 0.500000 0.500000 -0.500000
vn 0.301511 0.301511 -0.904534
v -0.500000 0.500000 -0.500000
vn -0.707107 -0.000000 -0.707107
v -0.500000 -0.500000 0.500000
vn -0.707107 -0.707107 -0.000000
v 0.500000 -0.500000 0.500000
vn 0.301511 -0.904534 0.301511
v 0.500000 0.500000 0.500000
vn 0.577350 0.577350 0.577350
v -0.500000 0.500000 0.500000
vn -0.904534 0.301511 0.301511
v -0.500000 -0.500000 1.500000
vn -0.577350 -0.577350 0.577350
v 0.500000 -0.500000 1.500000
vn 0.577350 -0.577350 0.577350
v 0.500000 0.500000 1.500000
vn 0.577350 0.577350 0.577350
v -0.500000 0.500000 1.500000
vn -0.577350 0.577350 0.577350
v 1.500000 -0.500000 -0.500000
vn 0.577350 -0.577350 -0.577350
v 1.500000 0.500000 -0.500000
vn 0.577350 0.577350 -0.577350
v 1.500000 0.500000 0.500000
vn 0.577350 0.577350 0.577350
v 1.500000 -0.500000 0.500000
vn 0.577350 -0.577350 0.577350
v 0.500000 1.500000 -0.500000
vn 0.577350 0.577350 -0.577350
v -0.500000 1.500000 -0.500000
vn -0.577350 0.577350 -0.577350
v -0.500000 1.500000 0.500000
vn -0.577350 0.577350 0.577350
v 0.500000 1.500000 0.500000
vn 0.577350 0.577350 0.577350
f 1//1 4//4 3//3 2//2
f 4//4 18//18 17//17 3//3
f 2//2 3//3 14//14 13//13
f 10//10 11//11 12//12 9//9
f 7//7 20//20 19//19 8//8
f 16//16 15//15 7//7 6//6
f 6//6 5//5 1//1 2//2
f 18//18 19//19 20//20 17//17
f 16//16 6//6 2//2 13//13
f 10//10 9//9 5//5 6//6
f 8//8 12//12 11//11 7//7
f 3//3 7//7 15//15 14//14
f 14//14 15//15 16//16 13//13
f 1//1 5//5 8//8 4//4
f 5//5 9//9 12//12 8//8
f 4//4 8//8 19//19 18//18
f 17//17 20//20 7//7 3//3
f 7//7 11//11 10//10 6//6
