# 166 vertices, 164 faces
v 0.867188 0.398438 -0.218750
vn -0.719845 -0.000000 0.694135
v 0.632813 0.117188 -0.218750
vn -0.301299 0.753250 0.584665
v 0.164063 0.117188 -0.218750
vn 0.301299 0.753251 0.584665
v -0.070313 0.398438 -0.218750
vn 0.796905 -0.000000 0.604105
v 0.164063 0.679688 -0.218750
vn 0.301300 -0.753250 0.584665
v 0.632813 0.679688 -0.218750
vn -0.301301 -0.753249 0.584665
v 0.398438 0.398438 -0.437500
vn -0.000000 -0.000000 1.000000
v 0.882813 0.398438 -0.281250
vn 0.785812 -0.000000 -0.618465
v 0.640625 0.101563 -0.281250
vn 0.315761 -0.796748 -0.515254
v 0.156250 0.101563 -0.281250
vn -0.315760 -0.796749 -0.515254
v -0.085938 0.398438 -0.281250
vn -0.825991 -0.000000 -0.563683
v 0.156250 0.695313 -0.281250
vn -0.315761 0.796747 -0.515256
v 0.640625 0.695313 -0.281250
vn 0.315762 0.796747 -0.515256
v 0.398438 0.398438 -0.562500
vn -0.000000 -0.000000 -1.000000
v 1.039063 0.398438 0.000000
vn 0.624681 -0.000000 0.780880
v 0.718750 0.007813 0.000000
vn 0.215339 -0.542124 0.812238
v 0.078125 0.007813 0.000000
vn 0.025914 -0.632359 0.774242
v 0.078125 0.789063 0.000000
vn 0.025922 0.632342 0.774255
v 0.718750 0.789063 0.000000
vn 0.215334 0.542109 0.812249
v -0.445313 0.398438 0.625000
vn 0.936920 -0.000000 0.349543
v -0.492188 0.398438 0.625000
vn -0.930665 -0.000000 -0.365872
v -0.710938 0.398438 1.343750
vn 0.894428 -0.000000 0.447212
v -0.851563 0.398438 1.437500
vn -0.000000 -0.000000 1.000000
v -0.992188 0.398438 1.343750
vn -0.868244 -0.000000 0.496138
v -1.039063 0.398438 1.156250
vn -0.999717 -0.000000 0.023801
v -0.757813 0.398438 1.312500
vn -0.899981 -0.000000 -0.435929
v -0.851563 0.398438 1.375000
vn -0.000000 -0.000000 -1.000000
v -0.945313 0.398438 1.312500
vn 0.882352 -0.000000 -0.470590
v -0.976563 0.398438 1.156250
vn 0.995037 -0.000000 -0.099504
v -1.007813 0.398438 1.062500
vn -0.000000 -0.000000 -1.000000
v -0.468750 0.625000 0.625000
vn 0.213169 0.959194 0.185756
v -0.734375 0.585938 1.328125
vn -0.017911 0.999479 0.026866
v -0.851563 0.585938 1.406250
vn -0.000000 1.000000 -0.000000
v -0.968750 0.585938 1.328125
vn -0.000000 1.000000 -0.000000
v -1.007813 0.585938 1.156250
vn -0.000000 0.959737 -0.280899
v -0.468750 0.171875 0.625000
vn 0.213169 -0.959194 0.185756
v -0.734375 0.210938 1.328125
vn -0.017913 -0.999478 0.026869
v -0.851563 0.210938 1.406250
vn -0.000000 -1.000000 -0.000000
v -0.968750 0.210938 1.328125
vn -0.000000 -1.000000 -0.000000
v -1.007813 0.210938 1.156250
vn -0.000000 -0.959737 -0.280899
v 0.808594 0.562500 -0.218750
vn -0.591951 -0.493293 0.637382
v 0.671875 0.398438 -0.382813
vn -0.422885 -0.000000 0.906183
v 0.808594 0.234375 -0.218750
vn -0.591951 0.493293 0.637382
v 0.988281 0.398438 -0.054688
vn -0.786318 -0.000000 0.617822
v 0.535156 0.234375 -0.382813
vn -0.197575 0.493939 0.846752
v 0.398438 0.070313 -0.218750
vn -0.000000 0.839433 0.543464
v 0.693359 0.042969 -0.054688
vn -0.316537 0.792842 0.520774
v 0.261719 0.234375 -0.382813
vn 0.197575 0.493939 0.846752
v -0.011719 0.234375 -0.218750
vn 0.616765 0.513973 0.596182
v 0.103516 0.042969 -0.054688
vn 0.360142 0.770102 0.526536
v 0.125000 0.398438 -0.382813
vn 0.422885 -0.000000 0.906183
v -0.011719 0.562500 -0.218750
vn 0.616765 -0.513973 0.596182
v -0.242188 0.398438 0.101563
vn 0.913812 -0.000000 0.406138
v 0.261719 0.562500 -0.382813
vn 0.197575 -0.493939 0.846752
v 0.398438 0.726563 -0.218750
vn -0.000000 -0.839433 0.543464
v 0.103516 0.753906 -0.054688
vn 0.360142 -0.770102 0.526536
v 0.535156 0.562500 -0.382813
vn -0.197575 -0.493939 0.846752
v 0.693359 0.753906 -0.054688
vn -0.316537 -0.792842 0.520774
v 0.822266 0.574219 -0.281250
vn 0.639277 0.521516 -0.565107
v 1.007813 0.398438 -0.070313
vn 0.874157 -0.000000 -0.485643
v 0.822266 0.222656 -0.281250
vn 0.639277 -0.521516 -0.565107
v 0.675781 0.398438 -0.492188
vn 0.502136 -0.000000 -0.864789
v 0.703125 0.023438 -0.070313
vn 0.340110 -0.859724 -0.381050
v 0.398438 0.054688 -0.281250
vn -0.000000 -0.880705 -0.473665
v 0.537109 0.230469 -0.492188
vn 0.225388 -0.566830 -0.792404
v 0.093750 0.023438 -0.070313
vn -0.350283 -0.855062 -0.382322
v -0.025391 0.222656 -0.281250
vn -0.647205 -0.527984 -0.549872
v 0.259766 0.230469 -0.492188
vn -0.225387 -0.566830 -0.792404
v -0.273438 0.398438 0.085938
vn -0.912509 -0.000000 -0.409056
v -0.025391 0.574219 -0.281250
vn -0.647205 0.527984 -0.549872
v 0.121094 0.398438 -0.492188
vn -0.502135 -0.000000 -0.864789
v 0.093750 0.773438 -0.070313
vn -0.350283 0.855062 -0.382322
v 0.398438 0.742188 -0.281250
vn -0.000000 0.880705 -0.473664
v 0.259766 0.566406 -0.492188
vn -0.225387 0.566830 -0.792404
v 0.703125 0.773438 -0.070313
vn 0.340110 0.859724 -0.381050
v 0.537109 0.566406 -0.492188
vn 0.225388 0.566830 -0.792404
v 0.958984 0.628906 0.000000
vn 0.441019 0.361636 0.821414
v 0.958984 0.167969 0.000000
vn 0.441019 -0.361636 0.821415
v 0.398438 -0.054688 0.000000
vn -0.000000 -0.624700 0.780865
v -0.218750 0.111328 0.156250
vn 0.364458 -0.771545 0.521430
v -0.218750 0.685547 0.156250
vn 0.364457 0.771544 0.521431
v 0.398438 0.851563 0.000000
vn -0.000000 0.624700 0.780865
v -0.451172 0.564453 0.625000
vn 0.917274 0.094889 0.386788
v -0.621094 0.398438 1.117188
vn 0.937995 -0.000000 0.346650
v -0.451172 0.232422 0.625000
vn 0.917274 -0.094888 0.386788
v -0.675781 0.398438 1.109375
vn -0.932798 -0.000000 -0.360399
v -0.486328 0.572266 0.625000
vn -0.917739 0.094941 -0.385669
v -0.486328 0.224609 0.625000
vn -0.917739 -0.094940 -0.385669
v -0.716797 0.539063 1.339844
vn 0.883955 0.147468 0.443708
v -0.769531 0.398438 1.414063
vn 0.554700 -0.000000 0.832050
v -0.716797 0.257813 1.339844
vn 0.883955 -0.147468 0.443709
v -0.851563 0.539063 1.429688
vn -0.000000 0.164399 0.986394
v -0.933594 0.398438 1.414063
vn -0.554700 -0.000000 0.832050
v -0.851563 0.257813 1.429688
vn -0.000000 -0.164399 0.986394
v -0.986328 0.539063 1.339844
vn -0.859960 0.148195 0.488371
v -1.027344 0.398438 1.250000
vn -0.970142 -0.000000 0.242536
v -0.986328 0.257813 1.339844
vn -0.859960 -0.148195 0.488371
v -1.031250 0.539063 1.156250
vn -0.986374 0.164396 -0.006282
v -1.031250 0.398438 1.085938
vn -0.948683 -0.000000 -0.316228
v -1.031250 0.257813 1.156250
vn -0.986374 -0.164396 -0.006280
v -0.751953 0.257813 1.316406
vn -0.891261 -0.147156 -0.428951
v -0.796875 0.398438 1.359375
vn -0.554700 -0.000000 -0.832050
v -0.751953 0.539063 1.316406
vn -0.891261 0.147156 -0.428952
v -0.851563 0.257813 1.382813
vn -0.000000 -0.164399 -0.986394
v -0.906250 0.398438 1.359375
vn 0.554700 -0.000000 -0.832050
v -0.851563 0.539063 1.382813
vn -0.000000 0.164399 -0.986394
v -0.951172 0.257813 1.316406
vn 0.870341 -0.147932 -0.469705
v -0.968750 0.398438 1.242188
vn 0.980581 -0.000000 -0.196116
v -0.951172 0.539063 1.316406
vn 0.870341 0.147932 -0.469705
v -0.984375 0.257813 1.156250
vn 0.976165 -0.162694 -0.143642
v -0.984375 0.398438 1.085938
vn 0.948683 -0.000000 -0.316228
v -0.984375 0.539063 1.156250
vn 0.976165 0.162694 -0.143643
v -1.007813 0.257813 1.085938
vn -0.000000 -0.447214 -0.894427
v -1.007813 0.539063 1.085938
vn -0.000000 0.447214 -0.894427
v -0.648438 0.595703 1.113281
vn 0.037531 0.996872 0.069560
v -0.783203 0.585938 1.386719
vn -0.000000 1.000000 -0.000000
v -0.919922 0.585938 1.386719
vn -0.000000 1.000000 -0.000000
v -0.998047 0.585938 1.246094
vn -0.000000 1.000000 -0.000000
v -0.648438 0.201172 1.113281
vn 0.037531 -0.996871 0.069561
v -0.783203 0.210938 1.386719
vn -0.000000 -1.000000 -0.000000
v -0.919922 0.210938 1.386719
vn -0.000000 -1.000000 -0.000000
v -0.998047 0.210938 1.246094
vn -0.000000 -1.000000 -0.000000
v 0.690972 0.278646 -0.437500
vn 0.527582 -0.435561 -0.729345
v 0.690972 0.518229 -0.437500
vn 0.527581 0.435563 -0.729344
v 0.398438 0.634549 -0.437500
vn -0.000000 0.768221 -0.640185
v 0.105903 0.518229 -0.437500
vn -0.527581 0.435563 -0.729344
v 0.105903 0.278646 -0.437500
vn -0.527581 -0.435561 -0.729345
v 0.398438 0.162326 -0.437500
vn -0.000000 -0.768222 -0.640183
v 0.684896 0.283854 -0.340278
vn -0.472867 0.394055 0.788110
v 0.684896 0.513021 -0.340278
vn -0.472866 -0.394057 0.788109
v 0.398438 0.627604 -0.340278
vn -0.000000 -0.707107 0.707107
v 0.111979 0.513021 -0.340278
vn 0.472866 -0.394057 0.788109
v 0.111979 0.283854 -0.340278
vn 0.472867 0.394055 0.788110
v 0.398438 0.169271 -0.340278
vn -0.000000 0.707109 0.707105
v 0.931641 0.175781 -0.070313
vn 0.694208 -0.564045 -0.447135
v 0.931641 0.621094 -0.070313
vn 0.694208 0.564045 -0.447135
v 0.398438 0.832031 -0.070313
vn -0.000000 0.932005 -0.362446
v -0.216250 0.636250 0.055000
vn -0.787160 0.424868 -0.447063
v -0.216250 0.160625 0.055000
vn -0.787160 -0.424868 -0.447064
v 0.398438 -0.035156 -0.070313
vn -0.000000 -0.932004 -0.362449
v 0.914551 0.190430 -0.054688
vn -0.623692 0.517458 0.585871
v 0.914551 0.606445 -0.054688
vn -0.623691 -0.517459 0.585871
v 0.398438 0.812500 -0.054688
vn -0.000000 -0.868243 0.496139
v -0.192187 0.618125 0.065000
vn 0.804444 -0.331348 0.493030
v -0.192187 0.178750 0.065000
vn 0.804444 0.331348 0.493030
v 0.398438 -0.015625 -0.054688
vn -0.000000 0.868241 0.496142
v -0.990451 0.502604 1.104167
vn 0.937040 0.156176 -0.312355
v -1.025174 0.502604 1.104167
vn -0.937044 0.156171 -0.312344
v -0.990451 0.294271 1.104167
vn 0.937040 -0.156176 -0.312355
v -1.025174 0.294271 1.104167
vn -0.937044 -0.156171 -0.312344
v -0.976074 0.539063 1.243164
vn 0.967296 0.155318 -0.200537
v -1.020020 0.539063 1.249023
vn -0.959632 0.154835 0.234804
v -0.976074 0.257813 1.243164
vn 0.967296 -0.155318 -0.200537
v -1.020020 0.257813 1.249023
vn -0.959632 -0.154835 0.234804
v -0.627930 0.545410 1.116211
vn 0.927160 0.135437 0.349329
v -0.668945 0.547363 1.110352
vn -0.927042 0.135421 -0.349649
v -0.627930 0.251465 1.116211
vn 0.927160 -0.135437 0.349329
v -0.668945 0.249512 1.110352
vn -0.927042 -0.135421 -0.349649
v -0.793457 0.539063 1.366211
vn -0.547582 0.159712 -0.821369
v -0.909668 0.539063 1.366211
vn 0.547585 0.159712 -0.821366
v -0.793457 0.257813 1.366211
vn -0.547582 -0.159712 -0.821369
v -0.909668 0.257813 1.366211
vn 0.547585 -0.159712 -0.821366
v -0.772949 0.539063 1.407227
vn 0.547580 0.159712 0.821370
v -0.930176 0.539063 1.407227
vn -0.547583 0.159712 0.821368
v -0.772949 0.257813 1.407227
vn 0.547580 -0.159712 0.821370
v -0.930176 0.257813 1.407227
vn -0.547583 -0.159712 0.821368
f 142//142 41//41 1//1 44//44
f 130//130 42//42 1//1 41//41
f 129//129 43//43 1//1 42//42
f 141//141 44//44 1//1 43//43
f 141//141 43//43 2//2 47//47
f 129//129 45//45 2//2 43//43
f 134//134 46//46 2//2 45//45
f 146//146 47//47 2//2 46//46
f 146//146 46//46 3//3 50//50
f 134//134 48//48 3//3 46//46
f 133//133 49//49 3//3 48//48
f 145//145 50//50 3//3 49//49
f 145//145 49//49 4//4 53//53
f 133//133 51//51 4//4 49//49
f 132//132 52//52 4//4 51//51
f 144//144 53//53 4//4 52//52
f 144//144 52//52 5//5 56//56
f 132//132 54//54 5//5 52//52
f 131//131 55//55 5//5 54//54
f 143//143 56//56 5//5 55//55
f 143//143 55//55 6//6 58//58
f 131//131 57//57 6//6 55//55
f 130//130 41//41 6//6 57//57
f 142//142 58//58 6//6 41//41
f 129//129 42//42 7//7 45//45
f 130//130 57//57 7//7 42//42
f 131//131 54//54 7//7 57//57
f 132//132 51//51 7//7 54//54
f 133//133 48//48 7//7 51//51
f 134//134 45//45 7//7 48//48
f 124//124 59//59 8//8 62//62
f 136//136 60//60 8//8 59//59
f 135//135 61//61 8//8 60//60
f 123//123 62//62 8//8 61//61
f 123//123 61//61 9//9 65//65
f 135//135 63//63 9//9 61//61
f 140//140 64//64 9//9 63//63
f 128//128 65//65 9//9 64//64
f 128//128 64//64 10//10 68//68
f 140//140 66//66 10//10 64//64
f 139//139 67//67 10//10 66//66
f 127//127 68//68 10//10 67//67
f 127//127 67//67 11//11 71//71
f 139//139 69//69 11//11 67//67
f 138//138 70//70 11//11 69//69
f 126//126 71//71 11//11 70//70
f 126//126 70//70 12//12 74//74
f 138//138 72//72 12//12 70//70
f 137//137 73//73 12//12 72//72
f 125//125 74//74 12//12 73//73
f 125//125 73//73 13//13 76//76
f 137//137 75//75 13//13 73//73
f 136//136 59//59 13//13 75//75
f 124//124 76//76 13//13 59//59
f 128//128 68//68 14//14 65//65
f 127//127 71//71 14//14 68//68
f 126//126 74//74 14//14 71//71
f 125//125 76//76 14//14 74//74
f 124//124 62//62 14//14 76//76
f 123//123 65//65 14//14 62//62
f 136//136 77//77 15//15 60//60
f 142//142 44//44 15//15 77//77
f 141//141 78//78 15//15 44//44
f 135//135 60//60 15//15 78//78
f 135//135 78//78 16//16 63//63
f 141//141 47//47 16//16 78//78
f 146//146 79//79 16//16 47//47
f 140//140 63//63 16//16 79//79
f 140//140 79//79 17//17 66//66
f 146//146 50//50 17//17 79//79
f 145//145 80//80 17//17 50//50
f 139//139 66//66 17//17 80//80
f 138//138 81//81 18//18 72//72
f 144//144 56//56 18//18 81//81
f 143//143 82//82 18//18 56//56
f 137//137 72//72 18//18 82//82
f 137//137 82//82 19//19 75//75
f 143//143 58//58 19//19 82//82
f 142//142 77//77 19//19 58//58
f 136//136 75//75 19//19 77//77
f 145//145 53//53 20//20 85//85
f 144//144 83//83 20//20 53//53
f 155//155 84//84 20//20 83//83
f 157//157 85//85 20//20 84//84
f 158//158 86//86 21//21 88//88
f 156//156 87//87 21//21 86//86
f 138//138 69//69 21//21 87//87
f 139//139 88//88 21//21 69//69
f 157//157 84//84 22//22 91//91
f 155//155 89//89 22//22 84//84
f 163//163 90//90 22//22 89//89
f 165//165 91//91 22//22 90//90
f 165//165 90//90 23//23 94//94
f 163//163 92//92 23//23 90//90
f 164//164 93//93 23//23 92//92
f 166//166 94//94 23//23 93//93
f 166//166 93//93 24//24 97//97
f 164//164 95//95 24//24 93//93
f 152//152 96//96 24//24 95//95
f 154//154 97//97 24//24 96//96
f 154//154 96//96 25//25 100//100
f 152//152 98//98 25//25 96//96
f 148//148 99//99 25//25 98//98
f 150//150 100//100 25//25 99//99
f 156//156 86//86 26//26 103//103
f 158//158 101//101 26//26 86//86
f 161//161 102//102 26//26 101//101
f 159//159 103//103 26//26 102//102
f 159//159 102//102 27//27 106//106
f 161//161 104//104 27//27 102//102
f 162//162 105//105 27//27 104//104
f 160//160 106//106 27//27 105//105
f 160//160 105//105 28//28 109//109
f 162//162 107//107 28//28 105//105
f 153//153 108//108 28//28 107//107
f 151//151 109//109 28//28 108//108
f 151//151 108//108 29//29 112//112
f 153//153 110//110 29//29 108//108
f 149//149 111//111 29//29 110//110
f 147//147 112//112 29//29 111//111
f 147//147 111//111 30//30 114//114
f 149//149 113//113 30//30 111//111
f 150//150 99//99 30//30 113//113
f 148//148 114//114 30//30 99//99
f 144//144 81//81 31//31 83//83
f 138//138 87//87 31//31 81//81
f 156//156 115//115 31//31 87//87
f 155//155 83//83 31//31 115//115
f 155//155 115//115 32//32 89//89
f 156//156 103//103 32//32 115//115
f 159//159 116//116 32//32 103//103
f 163//163 89//89 32//32 116//116
f 163//163 116//116 33//33 92//92
f 159//159 106//106 33//33 116//116
f 160//160 117//117 33//33 106//106
f 164//164 92//92 33//33 117//117
f 164//164 117//117 34//34 95//95
f 160//160 109//109 34//34 117//117
f 151//151 118//118 34//34 109//109
f 152//152 95//95 34//34 118//118
f 152//152 118//118 35//35 98//98
f 151//151 112//112 35//35 118//118
f 147//147 114//114 35//35 112//112
f 148//148 98//98 35//35 114//114
f 157//157 119//119 36//36 85//85
f 158//158 88//88 36//36 119//119
f 139//139 80//80 36//36 88//88
f 145//145 85//85 36//36 80//80
f 158//158 119//119 37//37 101//101
f 157//157 91//91 37//37 119//119
f 165//165 120//120 37//37 91//91
f 161//161 101//101 37//37 120//120
f 161//161 120//120 38//38 104//104
f 165//165 94//94 38//38 120//120
f 166//166 121//121 38//38 94//94
f 162//162 104//104 38//38 121//121
f 162//162 121//121 39//39 107//107
f 166//166 97//97 39//39 121//121
f 154//154 122//122 39//39 97//97
f 153//153 107//107 39//39 122//122
f 153//153 122//122 40//40 110//110
f 154//154 100//100 40//40 122//122
f 150//150 113//113 40//40 100//100
f 149//149 110//110 40//40 113//113
