# 40 vertices, 30 faces
v -0.403328 -0.025356 -0.354992
vn -0.234961 -0.935838 -0.262679
v -0.403328 -0.025356 0.377179
vn -0.234961 -0.935838 0.262679
v 0.415214 -0.025356 0.377179
vn 0.244663 -0.930228 0.273525
v 0.415214 -0.025356 -0.354992
vn 0.244663 -0.930228 -0.273525
v 0.396196 0.184930 0.377179
vn 0.234961 0.935838 0.262679
v 0.396196 0.184930 -0.354992
vn 0.234961 0.935838 -0.262679
v -0.422346 0.184930 -0.354992
vn -0.244663 0.930228 -0.273525
v -0.422346 0.184930 0.377179
vn -0.244663 0.930228 0.273525
v 0.242464 0.165912 0.229794
vn 0.650482 0.190181 0.735326
v 0.290008 -0.658479 0.291601
vn 0.662566 -0.004984 0.748987
v 0.166394 -0.658479 0.291601
vn -0.660390 -0.081139 0.746526
v 0.118850 0.165912 0.229794
vn -0.658063 0.116494 0.743896
v 0.242464 0.165912 0.120443
vn 0.660390 0.081139 -0.746527
v 0.290008 -0.658479 0.182250
vn 0.658063 -0.116494 -0.743896
v 0.166394 -0.658479 0.182250
vn -0.650482 -0.190181 -0.735326
v 0.118850 0.165912 0.120443
vn -0.662566 0.004984 -0.748987
v -0.114105 0.165912 0.115689
vn 0.630146 0.018487 -0.776257
v -0.142631 -0.658479 0.182250
vn 0.619461 -0.184267 -0.763095
v -0.277337 -0.658479 0.182250
vn -0.623831 -0.142395 -0.768478
v -0.248811 0.165912 0.115689
vn -0.629042 0.061987 -0.774896
v -0.248811 0.165912 0.225040
vn -0.619461 0.184267 0.763095
v -0.277337 -0.658479 0.291601
vn -0.630146 -0.018487 0.776257
v -0.114105 0.165912 0.225040
vn 0.623831 0.142395 0.768478
v -0.142631 -0.658479 0.291601
vn 0.629042 -0.061987 0.774896
v -0.095087 0.165912 -0.183864
vn 0.621486 0.123708 -0.773597
v -0.142631 -0.658479 -0.245671
vn 0.624301 -0.079754 -0.777102
v -0.277337 -0.658479 -0.245671
vn -0.626278 -0.007770 -0.779561
v -0.229793 0.165912 -0.183864
vn -0.614497 0.193195 -0.764898
v -0.277337 -0.658479 -0.137452
vn -0.621486 -0.123708 0.773597
v -0.229793 0.165912 -0.075645
vn -0.624301 0.079754 0.777102
v -0.142631 -0.658479 -0.137452
vn 0.614497 -0.193194 0.764898
v -0.095087 0.165912 -0.075645
vn 0.626277 0.007770 0.779562
v 0.270990 0.165912 -0.169601
vn 0.647893 0.180384 -0.740065
v 0.290008 -0.658479 -0.245671
vn 0.658634 -0.014145 -0.752330
v 0.166394 -0.658479 -0.245671
vn -0.658048 -0.044493 -0.751660
v 0.147376 0.165912 -0.169601
vn -0.651121 0.151241 -0.743752
v 0.166394 -0.658479 -0.137452
vn -0.647895 -0.180384 0.740063
v 0.147376 0.165912 -0.061382
vn -0.658633 0.014145 0.752332
v 0.290008 -0.658479 -0.137452
vn 0.651123 -0.151241 0.743751
v 0.270990 0.165912 -0.061382
vn 0.658046 0.044493 0.751662
f 3//3 2//2 1//1 4//4
f 2//2 8//8 7//7 1//1
f 1//1 7//7 6//6 4//4
f 4//4 6//6 5//5 3//3
f 8//8 2//2 3//3 5//5
f 6//6 7//7 8//8 5//5
f 12//12 11//11 10//10 9//9
f 15//15 11//11 12//12 16//16
f 16//16 13//13 14//14 15//15
f 10//10 14//14 13//13 9//9
f 10//10 11//11 15//15 14//14
f 13//13 16//16 12//12 9//9
f 17//17 18//18 19//19 20//20
f 20//20 19//19 22//22 21//21
f 17//17 23//23 24//24 18//18
f 21//21 22//22 24//24 23//23
f 22//22 19//19 18//18 24//24
f 21//21 23//23 17//17 20//20
f 25//25 26//26 27//27 28//28
f 28//28 27//27 29//29 30//30
f 32//32 31//31 26//26 25//25
f 30//30 29//29 31//31 32//32
f 31//31 29//29 27//27 26//26
f 30//30 32//32 25//25 28//28
f 33//33 34//34 35//35 36//36
f 36//36 35//35 37//37 38//38
f 40//40 39//39 34//34 33//33
f 38//38 37//37 39//39 40//40
f 39//39 37//37 35//35 34//34
f 33//33 36//36 38//38 40//40
