# the control surface
# vertices number 46
# faces number 88
v -0.000456 -0.505477 0.149290
v 0.364030 0.163019 0.130063
v 0.120755 -0.115291 0.331106
v -0.121666 -0.115291 0.331106
v -0.386203 0.128033 0.137528
v -0.312897 -0.549637 -0.117534
v 0.311985 -0.549637 -0.117534
v 0.617781 0.209604 -0.158423
v 0.353491 0.519815 -0.158423
v -0.312168 0.532727 -0.117534
v -0.618693 0.209604 -0.158423
v -0.000456 0.054342 0.331106
v -0.000456 0.064338 -0.590471
v 0.409411 0.474205 -0.000662
v 0.059524 0.554179 -0.160609
v -0.000456 0.454211 0.029328
v -0.410323 0.414223 0.029328
v -0.060436 0.254276 0.149290
v 0.249463 -0.285549 0.149290
v 0.239467 -0.035630 0.269250
v 0.099512 -0.275552 0.269250
v -0.000456 -0.155591 0.359221
v -0.100424 -0.275552 0.269250
v -0.240379 -0.035630 0.269250
v -0.250375 -0.285549 0.149290
v -0.100424 -0.005639 0.359221
v -0.140410 0.114322 0.269250
v 0.139499 0.114322 0.269250
v 0.099512 -0.005639 0.359221
v -0.570270 0.434217 -0.160609
v -0.620254 0.204292 -0.000662
v -0.540280 -0.135597 -0.160609
v -0.440313 -0.265555 0.029328
v -0.160404 -0.635435 0.029328
v -0.000456 -0.695415 -0.160609
v 0.159492 -0.635435 0.029328
v 0.539368 -0.135597 -0.160609
v 0.619342 0.204292 -0.000662
v 0.439401 -0.265555 0.029328
v 0.569358 0.434217 -0.160609
v 0.209475 -0.345529 -0.390536
v -0.210387 -0.345529 -0.390536
v 0.439401 0.144312 -0.390536
v 0.229469 0.414225 -0.390536
v -0.230381 0.414225 -0.390536
v -0.440313 0.144312 -0.390536

vn 0.000000 -0.543695 0.839283
vn 0.427780 0.252833 0.867802
vn 0.441948 -0.263956 0.857327
vn -0.441948 -0.263956 0.857327
vn -0.493606 0.168433 0.853220
vn -0.708513 -0.685660 -0.166972
vn 0.708513 -0.685660 -0.166972
vn 0.945056 -0.008521 -0.326799
vn 0.239998 0.956908 -0.163489
vn -0.185158 0.973104 0.137060
vn -0.945056 -0.008521 -0.326799
vn 0.000000 0.577916 0.816097
vn 0.000000 0.038011 -0.999277
vn 0.296372 0.747208 0.594848
vn 0.020519 0.998873 -0.042807
vn 0.009629 0.688650 0.725030
vn -0.303478 0.588707 0.749217
vn -0.030619 0.601814 0.798049
vn 0.570603 -0.339036 0.747975
vn 0.631544 -0.058402 0.773138
vn 0.348196 -0.467811 0.812350
vn 0.000000 -0.608414 0.793620
vn -0.348196 -0.467811 0.812350
vn -0.613763 -0.067707 0.786582
vn -0.553784 -0.352283 0.754467
vn -0.529782 0.38304 0.756711
vn -0.244719 0.575941 0.780003
vn 0.229914 0.591636 0.772727
vn 0.529782 0.38304 0.756711
vn -0.747827 0.637461 -0.185465
vn -0.869321 0.064706 0.489994
vn -0.896597 -0.355397 -0.264209
vn -0.731114 -0.364179 0.576928
vn -0.379908 -0.729204 0.569150
vn 0.000000 -0.919600 -0.392856
vn 0.379908 -0.729204 0.569150
vn 0.896597 -0.355397 -0.264209
vn 0.865975 0.070700 0.495065
vn 0.724747 -0.352663 0.591920
vn 0.741165 0.618743 -0.260445
vn 0.387047 -0.460776 -0.798674
vn -0.387047 -0.460776 -0.798674
vn 0.624024 0.022305 -0.781087
vn 0.226355 0.657131 -0.718987
vn -0.216818 0.676807 -0.703507
vn -0.624024 0.022305 -0.781087

f 2//2 14//14 16//16 
f 9//9 15//15 14//16 
f 10//10 16//16 15//15 
f 14//14 15//15 16//16 
f 2//2 16//16 18//18 
f 10//10 17//17 16//16 
f 5//5 18//18 17//17 
f 16//16 17//17 18//18 
f 1//1 19//19 21//21 
f 2//2 20//20 19//19 
f 3//3 21//21 20//20 
f 19//19 20//20 21//21 
f 1//1 21//21 23//23 
f 3//3 22//22 21//21 
f 4//4 23//23 22//22 
f 21//21 22//22 23//23 
f 1//1 23//23 25//25 
f 4//4 24//24 23//23 
f 5//5 25//25 24//24 
f 23//23 24//24 25//25 
f 4//4 26//26 24//24 
f 12//12 27//27 26//26 
f 5//5 24//24 27//27 
f 26//26 27//27 24//24 
f 12//12 28//28 27//27 
f 2//2 18//18 28//28 
f 5//5 27//27 18//18 
f 28//28 18//18 27//27 
f 3//3 20//20 29//29 
f 2//2 28//28 20//20 
f 12//12 29//29 28//28 
f 20//20 28//28 29//29 
f 3//3 29//29 22//22 
f 12//12 26//26 29//29 
f 4//4 22//22 26//26 
f 29//29 26//26 22//22 
f 5//5 17//17 31//31 
f 10//10 30//30 17//17 
f 11//11 31//31 30//30 
f 17//17 30//30 31//31 
f 5//5 31//31 33//33 
f 11//11 32//32 31//31 
f 6//6 33//33 32//32 
f 31//31 32//32 33//33 
f 1//1 34//34 36//36 
f 6//6 35//35 34//34 
f 7//7 36//36 35//35 
f 34//34 35//35 36//36 
f 7//7 37//37 39//39 
f 8//8 38//38 37//37 
f 2//2 39//39 38//38 
f 37//37 38//38 39//39 
f 8//8 40//40 38//38 
f 9//9 14//14 40//40 
f 2//2 38//38 14//14
f 40//40 14//14 38//38 
f 5//5 33//33 25//25 
f 6//6 34//34 33//33 
f 1//1 25//25 34//34 
f 33//33 34//34 25//25 
f 1//1 36//36 19//19 
f 7//7 39//39 36//36 
f 2//2 19//19 39//39 
f 36//36 39//39 19//19 
f 13//13 41//41 42//42 
f 7//7 35//35 41//41 
f 6//6 42//42 35//35 
f 41//41 35//35 42//42 
f 13//13 43//43 41//41 
f 8//8 37//37 43//43 
f 7//7 41//41 37//37 
f 43//43 37//37 41//41 
f 13//13 44//44 43//43
f 9//9 40//40 44//44 
f 8//8 43//43 40//40 
f 44//44 40//40 43//43 
f 13//13 45//45 44//44 
f 10//10 15//15 45//45 
f 9//9 44//44 15//15 
f 45//45 15//15 44//44 
f 13//13 46//46 45//45 
f 11//11 30//30 46//46 
f 10//10 45//45 30//30 
f 46//46 30//30 45//45 
f 13//13 42//42 46//46 
f 6//6 32//32 42//42 
f 11//11 46//46 32//32 
f 42//42 32//32 46//46 
# ...............The End
