# Generated with PyMesh
v -0.5 -0.5 -0.5 
v 0.5 -0.5 -0.5 
v 0.5 0.5 -0.5 
v -0.5 0.5 -0.5 
v -0.5 -0.5 0.5 
v 0.5 -0.5 0.5 
v 0.5 0.5 0.5 
v -0.5 0.5 0.5 
vn -0.40825 -0.81650 -0.40825 
vn 0.40825 -0.81650 -0.40825 
vn 0.40825 0.81650 -0.40825 
vn -0.40825 0.81650 -0.40825 
vn -0.40825 -0.81650 0.40825 
vn 0.40825 -0.81650 0.40825 
vn 0.40825 0.81650 0.40825 
vn -0.40825 0.81650 0.40825 
f 1//1 3//3 2//2 
f 1//1 4//4 3//3 
f 6//6 1//1 2//2 
f 6//6 5//5 1//1 
f 3//3 7//7 2//2 
f 4//4 7//7 3//3 
f 6//6 2//2 7//7 
f 6//6 7//7 5//5 
f 1//1 8//8 4//4 
f 1//1 5//5 8//8 
f 4//4 8//8 7//7 
f 7//7 8//8 5//5 