# 18 vertices, 16 faces
v 0.000000 1.000000 0.000000
vn 0.000000 1.000000 0.000000
v 0.866025 0.500000 0.000000
vn 0.866025 0.500000 -0.000000
v 0.866025 -0.500000 0.000000
vn 0.866025 -0.500000 -0.000000
v 0.000000 -1.000000 0.000000
vn 0.000000 -1.000000 0.000000
v -0.866025 -0.500000 0.000000
vn -0.866025 -0.500000 -0.000000
v -0.866025 0.500000 0.000000
vn -0.866025 0.500000 0.000000
v 0.000000 1.000000 1.000000
vn 0.000000 1.000000 0.000000
v 0.866025 0.500000 1.000000
vn 0.866025 0.500000 0.000000
v 0.866025 -0.500000 1.000000
vn 0.866025 -0.500000 0.000000
v 0.000000 -1.000000 1.000000
vn 0.000000 -1.000000 0.000000
v -0.866025 -0.500000 1.000000
vn -0.866025 -0.500000 0.000000
v -0.866025 0.500000 1.000000
vn -0.866025 0.500000 0.000000
v 0.000000 1.000000 -1.000000
vn 0.000000 1.000000 0.000000
v 0.866025 0.500000 -1.000000
vn 0.866025 0.500000 0.000000
v 0.866025 -0.500000 -1.000000
vn 0.866025 -0.500000 0.000000
v 0.000000 -1.000000 -1.000000
vn 0.000000 -1.000000 0.000000
v -0.866025 -0.500000 -1.000000
vn -0.866025 -0.500000 0.000000
v -0.866025 0.500000 -1.000000
vn -0.866025 0.500000 0.000000
f 1//1 7//7 8//8 2//2
f 2//2 8//8 9//9 3//3
f 3//3 9//9 10//10 4//4
f 4//4 10//10 11//11 5//5
f 5//5 11//11 12//12 6//6
f 6//6 12//12 7//7 1//1
f 13//13 1//1 2//2 14//14
f 14//14 2//2 3//3 15//15
f 15//15 3//3 4//4 16//16
f 16//16 4//4 5//5 17//17
f 17//17 5//5 6//6 18//18
f 18//18 6//6 1//1 13//13
