# the control surface
# vertices number 154
# faces number 304
v -0.422942 -0.798927 0.000000
v -0.422942 -0.659222 0.000000
v -0.351819 -0.730344 0.000000
v -0.323880 -0.318850 0.000000
v -0.299067 -0.798927 -0.299067
v -0.299067 -0.798927 0.299067
v -0.299067 -0.659222 -0.299067
v -0.299067 -0.659222 0.299067
v -0.278155 0.239970 0.000000
v -0.266434 0.562352 0.000000
v -0.265456 -0.321391 0.000000
v -0.252756 -0.793847 0.000000
v -0.248774 -0.730344 -0.248774
v -0.248774 -0.730344 0.248774
v -0.235956 0.430711 0.000000
v -0.234206 0.685123 0.000000
v -0.229016 -0.318850 -0.229016
v -0.229016 -0.318850 0.229016
v -0.222273 0.265369 0.000000
v -0.204493 -0.318850 0.000000
v -0.196685 0.239970 -0.196685
v -0.196685 0.239970 0.196685
v -0.188398 0.562352 -0.188398
v -0.188398 0.562352 0.188398
v -0.187705 -0.321391 -0.187705
v -0.187705 -0.321391 0.187705
v -0.178726 -0.793847 -0.178726
v -0.178726 -0.793847 0.178726
v -0.173861 0.165696 0.000000
v -0.166846 0.430711 -0.166846
v -0.166846 0.430711 0.166846
v -0.165608 0.685123 -0.165608
v -0.165608 0.685123 0.165608
v -0.157171 0.265369 -0.157171
v -0.157171 0.265369 0.157171
v -0.146070 0.308553 0.000000
v -0.144599 -0.318850 -0.144599
v -0.144599 -0.318850 0.144599
v -0.138255 0.332078 0.000000
v -0.137030 -0.113714 0.000000
v -0.135814 0.756010 0.000000
v -0.122939 0.165696 -0.122939
v -0.122939 0.165696 0.122939
v -0.114398 0.057265 0.000000
v -0.103287 0.308553 -0.103287
v -0.103287 0.308553 0.103287
v -0.097761 0.332078 -0.097761
v -0.097761 0.332078 0.097761
v -0.096896 -0.113714 -0.096896
v -0.096896 -0.113714 0.096896
v -0.096035 0.756010 -0.096035
v -0.096035 0.756010 0.096035
v -0.080892 0.057265 -0.080892
v -0.080892 0.057265 0.080892
v -0.008904 0.252670 0.000000
v -0.006296 0.252670 -0.006296
v -0.006296 0.252670 0.006296
v 0.000000 -0.798927 -0.422942
v 0.000000 -0.659222 -0.422942
v 0.000000 -0.730344 -0.351819
v 0.000000 -0.318850 -0.323880
v 0.000000 0.239970 -0.278155
v 0.000000 0.562352 -0.266434
v 0.000000 -0.321391 -0.265456
v 0.000000 -0.793847 -0.252756
v 0.000000 0.430711 -0.235956
v 0.000000 0.685123 -0.234206
v 0.000000 0.265369 -0.222273
v 0.000000 -0.318850 -0.204493
v 0.000000 0.165696 -0.173861
v 0.000000 0.308553 -0.146070
v 0.000000 0.332078 -0.138255
v 0.000000 -0.113714 -0.137030
v 0.000000 0.756010 -0.135814
v 0.000000 0.057265 -0.114398
v 0.000000 0.252670 -0.008904
v 0.000000 -0.804007 0.000000
v 0.000000 0.798791 0.000000
v 0.000000 0.252670 0.008904
v 0.000000 0.057265 0.114398
v 0.000000 0.756010 0.135814
v 0.000000 -0.113714 0.137030
v 0.000000 0.332078 0.138255
v 0.000000 0.308553 0.146070
v 0.000000 0.165696 0.173861
v 0.000000 -0.318850 0.204493
v 0.000000 0.265369 0.222273
v 0.000000 0.685123 0.234206
v 0.000000 0.430711 0.235956
v 0.000000 -0.793847 0.252756
v 0.000000 -0.321391 0.265456
v 0.000000 0.562352 0.266434
v 0.000000 0.239970 0.278155
v 0.000000 -0.318850 0.323880
v 0.000000 -0.730344 0.351819
v 0.000000 -0.798927 0.422942
v 0.000000 -0.659222 0.422942
v 0.006296 0.252670 -0.006296
v 0.006296 0.252670 0.006296
v 0.008904 0.252670 0.000000
v 0.080892 0.057265 -0.080892
v 0.080892 0.057265 0.080892
v 0.096035 0.756010 -0.096035
v 0.096035 0.756010 0.096035
v 0.096896 -0.113714 -0.096896
v 0.096896 -0.113714 0.096896
v 0.097761 0.332078 -0.097761
v 0.097761 0.332078 0.097761
v 0.103287 0.308553 -0.103287
v 0.103287 0.308553 0.103287
v 0.114398 0.057265 0.000000
v 0.122939 0.165696 -0.122939
v 0.122939 0.165696 0.122939
v 0.135814 0.756010 0.000000
v 0.137030 -0.113714 0.000000
v 0.138255 0.332078 0.000000
v 0.144599 -0.318850 -0.144599
v 0.144599 -0.318850 0.144599
v 0.146070 0.308553 0.000000
v 0.157171 0.265369 -0.157171
v 0.157171 0.265369 0.157171
v 0.165608 0.685123 -0.165608
v 0.165608 0.685123 0.165608
v 0.166846 0.430711 -0.166846
v 0.166846 0.430711 0.166846
v 0.173861 0.165696 0.000000
v 0.178726 -0.793847 -0.178726
v 0.178726 -0.793847 0.178726
v 0.187705 -0.321391 -0.187705
v 0.187705 -0.321391 0.187705
v 0.188398 0.562352 -0.188398
v 0.188398 0.562352 0.188398
v 0.196685 0.239970 -0.196685
v 0.196685 0.239970 0.196685
v 0.204493 -0.318850 0.000000
v 0.222273 0.265369 0.000000
v 0.229016 -0.318850 -0.229016
v 0.229016 -0.318850 0.229016
v 0.234206 0.685123 0.000000
v 0.235956 0.430711 0.000000
v 0.248774 -0.730344 -0.248774
v 0.248774 -0.730344 0.248774
v 0.252756 -0.793847 0.000000
v 0.265456 -0.321391 0.000000
v 0.266434 0.562352 0.000000
v 0.278155 0.239970 0.000000
v 0.299067 -0.798927 -0.299067
v 0.299067 -0.798927 0.299067
v 0.299067 -0.659222 -0.299067
v 0.299067 -0.659222 0.299067
v 0.323880 -0.318850 0.000000
v 0.351819 -0.730344 0.000000
v 0.422942 -0.798927 0.000000
v 0.422942 -0.659222 0.000000

vn -0.900547 -0.434759 -0.000000
vn -0.966225 -0.257700 -0.000000
vn -0.999952 0.009818 0.000000
vn -0.335990 0.941865 0.000000
vn -0.544666 -0.431437 -0.719167
vn -0.544666 -0.431437 0.719167
vn -0.583720 -0.255437 -0.770729
vn -0.583720 -0.255437 0.770729
vn -0.994183 0.107703 0.000000
vn -0.999892 0.014724 0.000000
vn -0.013291 0.999912 0.000000
vn -0.005166 -0.999987 0.000000
vn -0.797140 0.009726 -0.603716
vn -0.797140 0.009726 0.603716
vn -0.823848 -0.566811 0.000000
vn -0.746546 0.665334 0.000000
vn -0.453891 0.826103 -0.333971
vn -0.453891 0.826103 0.333971
vn -0.466920 0.884300 0.000000
vn -0.753194 0.657799 -0.000000
vn -0.600300 0.106703 -0.792625
vn -0.600300 0.106703 0.792625
vn -0.603684 0.014586 -0.797090
vn -0.603684 0.014586 0.797090
vn 0.004797 0.999982 -0.003519
vn 0.004797 0.999982 0.003519
vn 0.003049 -0.999995 -0.000449
vn 0.003049 -0.999995 0.000449
vn -0.793640 -0.608388 0.000000
vn -0.629350 -0.487145 -0.605481
vn -0.629350 -0.487145 0.605481
vn -0.597448 0.572557 -0.561458
vn -0.597448 0.572557 0.561458
vn -0.317095 0.891124 -0.324576
vn -0.317095 0.891124 0.324576
vn 0.097391 0.995246 0.000000
vn -0.359525 0.810248 -0.462861
vn -0.359525 0.810248 0.462861
vn -0.588556 -0.808457 -0.000000
vn -0.981277 0.192601 0.000000
vn -0.446694 0.894687 0.000000
vn -0.512885 -0.667240 -0.540129
vn -0.512885 -0.667240 0.540129
vn -0.982451 -0.186520 0.000000
vn -0.091019 0.995844 0.003139
vn -0.091019 0.995844 -0.003139
vn -0.447295 -0.784234 -0.430005
vn -0.447295 -0.784234 0.430005
vn -0.687543 0.223051 -0.691038
vn -0.687543 0.223051 0.691038
vn -0.370032 0.878782 -0.301360
vn -0.370032 0.878782 0.301360
vn -0.783443 -0.184826 -0.593343
vn -0.783443 -0.184826 0.593343
vn -0.860291 0.509803 0.000000
vn -0.687479 0.506238 -0.520668
vn -0.687479 0.506238 0.520668
vn 0.123388 -0.431438 -0.893665
vn 0.132237 -0.255437 -0.957740
vn -0.136763 0.009726 -0.990556
vn -0.084793 0.826103 -0.557103
vn 0.135992 0.106702 -0.984947
vn 0.136760 0.014585 -0.990497
vn 0.005880 0.999982 0.000904
vn 0.002473 -0.999995 0.001838
vn -0.016876 -0.487144 -0.873159
vn -0.025447 0.572556 -0.819471
vn 0.005290 0.891124 -0.453730
vn 0.073064 0.810247 -0.581517
vn 0.019261 -0.667239 -0.744595
vn -0.066582 0.995844 -0.062141
vn -0.012223 -0.784234 -0.620345
vn 0.002471 0.223049 -0.974804
vn -0.048561 0.878783 -0.474745
vn -0.134413 -0.184826 -0.973536
vn -0.117952 0.506241 -0.854287
vn -0.000000 -1.000000 0.000000
vn 0.000000 1.000000 0.000000
vn -0.000000 0.509799 0.860294
vn 0.000000 -0.186518 0.982452
vn 0.000000 0.869379 0.494146
vn 0.000000 0.253222 0.967408
vn -0.000000 -0.758712 0.651427
vn 0.000000 0.975299 0.220889
vn 0.000000 -0.721796 0.692106
vn -0.000000 0.921116 0.389288
vn -0.000000 0.897763 0.440479
vn -0.000000 0.470372 0.882468
vn -0.000000 -0.402290 0.915512
vn -0.000000 -0.999979 -0.006507
vn -0.000000 0.999886 -0.015098
vn -0.000000 0.014722 0.999892
vn 0.000000 0.107703 0.994183
vn -0.000000 0.657258 0.753666
vn 0.000000 0.009818 0.999952
vn 0.000000 -0.434761 0.900546
vn -0.000000 -0.257699 0.966225
vn 0.608320 0.509798 -0.608320
vn 0.687479 0.506238 0.520668
vn 0.860291 0.509803 0.000000
vn 0.694698 -0.186520 -0.694698
vn 0.783443 -0.184826 0.593343
vn 0.349414 0.869379 -0.349414
vn 0.370032 0.878782 0.301360
vn 0.684060 0.253226 -0.684060
vn 0.687543 0.223051 0.691038
vn 0.460628 -0.758712 -0.460628
vn 0.447295 -0.784234 0.430005
vn 0.156192 0.975299 -0.156192
vn 0.091019 0.995844 -0.003139
vn 0.982451 -0.186520 0.000000
vn 0.489391 -0.721798 -0.489391
vn 0.512885 -0.667240 0.540129
vn 0.446694 0.894687 0.000000
vn 0.981277 0.192601 0.000000
vn 0.588556 -0.808457 0.000000
vn 0.275268 0.921116 -0.275268
vn 0.359525 0.810248 0.462861
vn -0.097391 0.995246 -0.000000
vn 0.311465 0.897763 -0.311465
vn 0.317095 0.891124 0.324576
vn 0.624000 0.470371 -0.624000
vn 0.597448 0.572557 0.561458
vn 0.647365 -0.402291 -0.647365
vn 0.629350 -0.487145 0.605481
vn 0.793640 -0.608388 -0.000000
vn -0.004601 -0.999979 0.004601
vn -0.003049 -0.999995 0.000449
vn -0.010676 0.999886 0.010676
vn -0.004797 0.999982 0.003519
vn 0.707030 0.014726 -0.707030
vn 0.603684 0.014586 0.797090
vn 0.702994 0.107703 -0.702994
vn 0.600300 0.106703 0.792625
vn 0.753194 0.657799 0.000000
vn 0.466920 0.884300 0.000000
vn 0.532923 0.657257 -0.532923
vn 0.453891 0.826103 0.333971
vn 0.746546 0.665334 0.000000
vn 0.823848 -0.566811 0.000000
vn 0.707073 0.009818 -0.707073
vn 0.797140 0.009726 0.603716
vn 0.005166 -0.999987 0.000000
vn 0.013291 0.999912 0.000000
vn 0.999892 0.014724 -0.000000
vn 0.994183 0.107703 0.000000
vn 0.636783 -0.434758 -0.636783
vn 0.544666 -0.431437 0.719167
vn 0.683224 -0.257701 -0.683224
vn 0.583720 -0.255437 0.770729
vn 0.335990 0.941865 0.000000
vn 0.999952 0.009818 -0.000000
vn 0.900547 -0.434759 0.000000
vn 0.966225 -0.257700 0.000000

f 1//1 6//6 14//14 
f 1//1 14//14 3//3 
f 1//1 3//3 13//13 
f 1//1 13//13 5//5 
f 1//1 5//5 27//27 
f 1//1 27//27 12//12 
f 1//1 12//12 28//28 
f 1//1 28//28 6//6 
f 2//2 8//8 18//18 
f 2//2 18//18 4//4 
f 2//2 4//4 17//17 
f 2//2 17//17 7//7 
f 2//2 7//7 13//13 
f 2//2 13//13 3//3 
f 2//2 3//3 14//14 
f 2//2 14//14 8//8 
f 4//4 18//18 26//26 
f 4//4 26//26 11//11 
f 4//4 11//11 25//25 
f 4//4 25//25 17//17 
f 5//5 13//13 60//60 
f 5//5 60//60 58//58 
f 5//5 58//58 65//65 
f 5//5 65//65 27//27 
f 6//6 96//96 95//95 
f 6//6 95//95 14//14 
f 6//6 28//28 90//90 
f 6//6 90//90 96//96 
f 7//7 17//17 61//61 
f 7//7 61//61 59//59 
f 7//7 59//59 60//60 
f 7//7 60//60 13//13 
f 8//8 97//97 94//94 
f 8//8 94//94 18//18 
f 8//8 14//14 95//95 
f 8//8 95//95 97//97 
f 9//9 29//29 43//43 
f 9//9 43//43 22//22 
f 9//9 22//22 35//35 
f 9//9 35//35 19//19 
f 9//9 19//19 34//34 
f 9//9 34//34 21//21 
f 9//9 21//21 42//42 
f 9//9 42//42 29//29 
f 10//10 24//24 33//33 
f 10//10 33//33 16//16 
f 10//10 16//16 32//32 
f 10//10 32//32 23//23 
f 10//10 23//23 30//30 
f 10//10 30//30 15//15 
f 10//10 15//15 31//31 
f 10//10 31//31 24//24 
f 11//11 20//20 37//37 
f 11//11 37//37 25//25 
f 11//11 26//26 38//38 
f 11//11 38//38 20//20 
f 15//15 30//30 47//47 
f 15//15 47//47 39//39 
f 15//15 39//39 48//48 
f 15//15 48//48 31//31 
f 16//16 33//33 52//52 
f 16//16 52//52 41//41 
f 16//16 41//41 51//51 
f 16//16 51//51 32//32 
f 17//17 25//25 64//64 
f 17//17 64//64 61//61 
f 18//18 94//94 91//91 
f 18//18 91//91 26//26 
f 19//19 36//36 45//45 
f 19//19 45//45 34//34 
f 19//19 35//35 46//46 
f 19//19 46//46 36//36 
f 20//20 38//38 50//50 
f 20//20 50//50 40//40 
f 20//20 40//40 49//49 
f 20//20 49//49 37//37 
f 21//21 34//34 68//68 
f 21//21 68//68 62//62 
f 21//21 62//62 70//70 
f 21//21 70//70 42//42 
f 22//22 43//43 85//85 
f 22//22 85//85 93//93 
f 22//22 93//93 87//87 
f 22//22 87//87 35//35 
f 23//23 32//32 67//67 
f 23//23 67//67 63//63 
f 23//23 63//63 66//66 
f 23//23 66//66 30//30 
f 24//24 92//92 88//88 
f 24//24 88//88 33//33 
f 24//24 31//31 89//89 
f 24//24 89//89 92//92 
f 25//25 37//37 69//69 
f 25//25 69//69 64//64 
f 26//26 91//91 86//86 
f 26//26 86//86 38//38 
f 29//29 42//42 53//53 
f 29//29 53//53 44//44 
f 29//29 44//44 54//54 
f 29//29 54//54 43//43 
f 30//30 66//66 72//72 
f 30//30 72//72 47//47 
f 31//31 48//48 83//83 
f 31//31 83//83 89//89 
f 32//32 51//51 74//74 
f 32//32 74//74 67//67 
f 33//33 88//88 81//81 
f 33//33 81//81 52//52 
f 34//34 45//45 71//71 
f 34//34 71//71 68//68 
f 35//35 87//87 84//84 
f 35//35 84//84 46//46 
f 36//36 46//46 57//57 
f 36//36 57//57 55//55 
f 36//36 55//55 56//56 
f 36//36 56//56 45//45 
f 37//37 49//49 73//73 
f 37//37 73//73 69//69 
f 38//38 86//86 82//82 
f 38//38 82//82 50//50 
f 39//39 47//47 56//56 
f 39//39 56//56 55//55 
f 39//39 55//55 57//57 
f 39//39 57//57 48//48 
f 40//40 50//50 54//54 
f 40//40 54//54 44//44 
f 40//40 44//44 53//53 
f 40//40 53//53 49//49 
f 42//42 70//70 75//75 
f 42//42 75//75 53//53 
f 43//43 54//54 80//80 
f 43//43 80//80 85//85 
f 45//45 56//56 76//76 
f 45//45 76//76 71//71 
f 46//46 84//84 79//79 
f 46//46 79//79 57//57 
f 47//47 72//72 76//76 
f 47//47 76//76 56//56 
f 48//48 57//57 79//79 
f 48//48 79//79 83//83 
f 49//49 53//53 75//75 
f 49//49 75//75 73//73 
f 50//50 82//82 80//80 
f 50//50 80//80 54//54 
f 58//58 60//60 141//141 
f 58//58 141//141 147//147 
f 58//58 147//147 127//127 
f 58//58 127//127 65//65 
f 59//59 61//61 137//137 
f 59//59 137//137 149//149 
f 59//59 149//149 141//141 
f 59//59 141//141 60//60 
f 61//61 64//64 129//129 
f 61//61 129//129 137//137 
f 62//62 68//68 120//120 
f 62//62 120//120 133//133 
f 62//62 133//133 112//112 
f 62//62 112//112 70//70 
f 63//63 67//67 122//122 
f 63//63 122//122 131//131 
f 63//63 131//131 124//124 
f 63//63 124//124 66//66 
f 64//64 69//69 117//117 
f 64//64 117//117 129//129 
f 66//66 124//124 107//107 
f 66//66 107//107 72//72 
f 67//67 74//74 103//103 
f 67//67 103//103 122//122 
f 68//68 71//71 109//109 
f 68//68 109//109 120//120 
f 69//69 73//73 105//105 
f 69//69 105//105 117//117 
f 70//70 112//112 101//101 
f 70//70 101//101 75//75 
f 71//71 76//76 98//98 
f 71//71 98//98 109//109 
f 72//72 107//107 98//98 
f 72//72 98//98 76//76 
f 73//73 75//75 101//101 
f 73//73 101//101 105//105 
f 79//79 99//99 108//108 
f 79//79 108//108 83//83 
f 79//79 84//84 110//110 
f 79//79 110//110 99//99 
f 80//80 102//102 113//113 
f 80//80 113//113 85//85 
f 80//80 82//82 106//106 
f 80//80 106//106 102//102 
f 81//81 88//88 123//123 
f 81//81 123//123 104//104 
f 82//82 86//86 118//118 
f 82//82 118//118 106//106 
f 83//83 108//108 125//125 
f 83//83 125//125 89//89 
f 84//84 87//87 121//121 
f 84//84 121//121 110//110 
f 85//85 113//113 134//134 
f 85//85 134//134 93//93 
f 86//86 91//91 130//130 
f 86//86 130//130 118//118 
f 87//87 93//93 134//134 
f 87//87 134//134 121//121 
f 88//88 92//92 132//132 
f 88//88 132//132 123//123 
f 89//89 125//125 132//132 
f 89//89 132//132 92//92 
f 90//90 128//128 148//148 
f 90//90 148//148 96//96 
f 91//91 94//94 138//138 
f 91//91 138//138 130//130 
f 94//94 97//97 150//150 
f 94//94 150//150 138//138 
f 95//95 142//142 150//150 
f 95//95 150//150 97//97 
f 95//95 96//96 148//148 
f 95//95 148//148 142//142 
f 98//98 107//107 116//116 
f 98//98 116//116 100//100 
f 98//98 100//100 119//119 
f 98//98 119//119 109//109 
f 99//99 100//100 116//116 
f 99//99 116//116 108//108 
f 99//99 110//110 119//119 
f 99//99 119//119 100//100 
f 101//101 112//112 126//126 
f 101//101 126//126 111//111 
f 101//101 111//111 115//115 
f 101//101 115//115 105//105 
f 102//102 111//111 126//126 
f 102//102 126//126 113//113 
f 102//102 106//106 115//115 
f 102//102 115//115 111//111 
f 103//103 114//114 139//139 
f 103//103 139//139 122//122 
f 104//104 123//123 139//139 
f 104//104 139//139 114//114 
f 105//105 115//115 135//135 
f 105//105 135//135 117//117 
f 106//106 118//118 135//135 
f 106//106 135//135 115//115 
f 107//107 124//124 140//140 
f 107//107 140//140 116//116 
f 108//108 116//116 140//140 
f 108//108 140//140 125//125 
f 109//109 119//119 136//136 
f 109//109 136//136 120//120 
f 110//110 121//121 136//136 
f 110//110 136//136 119//119 
f 112//112 133//133 146//146 
f 112//112 146//146 126//126 
f 113//113 126//126 146//146 
f 113//113 146//146 134//134 
f 117//117 135//135 144//144 
f 117//117 144//144 129//129 
f 118//118 130//130 144//144 
f 118//118 144//144 135//135 
f 120//120 136//136 146//146 
f 120//120 146//146 133//133 
f 121//121 134//134 146//146 
f 121//121 146//146 136//136 
f 122//122 139//139 145//145 
f 122//122 145//145 131//131 
f 123//123 132//132 145//145 
f 123//123 145//145 139//139 
f 124//124 131//131 145//145 
f 124//124 145//145 140//140 
f 125//125 140//140 145//145 
f 125//125 145//145 132//132 
f 127//127 147//147 153//153 
f 127//127 153//153 143//143 
f 128//128 143//143 153//153 
f 128//128 153//153 148//148 
f 129//129 144//144 151//151 
f 129//129 151//151 137//137 
f 130//130 138//138 151//151 
f 130//130 151//151 144//144 
f 137//137 151//151 154//154 
f 137//137 154//154 149//149 
f 138//138 150//150 154//154 
f 138//138 154//154 151//151 
f 141//141 149//149 154//154 
f 141//141 154//154 152//152 
f 141//141 152//152 153//153 
f 141//141 153//153 147//147 
f 142//142 152//152 154//154 
f 142//142 154//154 150//150 
f 142//142 148//148 153//153 
f 142//142 153//153 152//152 
f 12//12 27//27 77//77 
f 12//12 77//77 28//28 
f 27//27 65//65 77//77 
f 28//28 77//77 90//90 
f 65//65 127//127 77//77 
f 77//77 128//128 90//90 
f 77//77 143//143 128//128 
f 77//77 127//127 143//143 
f 41//41 52//52 78//78 
f 41//41 78//78 51//51 
f 51//51 78//78 74//74 
f 52//52 81//81 78//78 
f 74//74 78//78 103//103 
f 78//78 81//81 104//104 
f 78//78 104//104 114//114 
f 78//78 114//114 103//103 

# ...............The End
