#  QUADRILATERAL MESH
#  Number of faces: 64

#  Sharp Feature Classification:
#  Vertex_Smooth                 0
#  Vertex_Dart                   1
#  Vertex_Crease                 2
#  Vertex_Corner                 3
#  Vertex_Conical                4
#  Vertex_Cusp                   5
 
#  Edge_Smooth                   0
#  Edge_Boundary                 1
#  Edge_Crease                   2
 
#  The list of feature vertices can be omitted if VertexType = 0-3.
 
#  List of vertices (starting index 1):

v 0.300000 0.000000 -0.000000
v 0.358579 0.000000 -0.141421
v 0.500000 0.000000 -0.200000
v 0.641421 0.000000 -0.141421
v 0.700000 0.000000 -0.000000
v 0.641421 0.000000 0.141421
v 0.500000 0.000000 0.200000
v 0.358579 0.000000 0.141421
v 0.212132 0.212132 -0.000000
v 0.253553 0.253553 -0.141421
v 0.353553 0.353553 -0.200000
v 0.453553 0.453553 -0.141421
v 0.494975 0.494975 -0.000000
v 0.453553 0.453553 0.141421
v 0.353553 0.353553 0.200000
v 0.253553 0.253553 0.141421
v 0.000000 0.300000 -0.000000
v 0.000000 0.358579 -0.141421
v 0.000000 0.500000 -0.200000
v 0.000000 0.641421 -0.141421
v 0.000000 0.700000 -0.000000
v 0.000000 0.641421 0.141421
v 0.000000 0.500000 0.200000
v 0.000000 0.358579 0.141421
v -0.212132 0.212132 -0.000000
v -0.253553 0.253553 -0.141421
v -0.353553 0.353553 -0.200000
v -0.453553 0.453553 -0.141421
v -0.494975 0.494975 -0.000000
v -0.453553 0.453553 0.141421
v -0.353553 0.353553 0.200000
v -0.253553 0.253553 0.141421
v -0.300000 0.000000 -0.000000
v -0.358579 0.000000 -0.141421
v -0.500000 0.000000 -0.200000
v -0.641421 0.000000 -0.141421
v -0.700000 0.000000 -0.000000
v -0.641421 0.000000 0.141421
v -0.500000 0.000000 0.200000
v -0.358579 0.000000 0.141421
v -0.212132 -0.212132 -0.000000
v -0.253553 -0.253553 -0.141421
v -0.353553 -0.353553 -0.200000
v -0.453553 -0.453553 -0.141421
v -0.494975 -0.494975 -0.000000
v -0.453553 -0.453553 0.141421
v -0.353553 -0.353553 0.200000
v -0.253553 -0.253553 0.141421
v -0.000000 -0.300000 -0.000000
v -0.000000 -0.358579 -0.141421
v -0.000000 -0.500000 -0.200000
v -0.000000 -0.641421 -0.141421
v -0.000000 -0.700000 -0.000000
v -0.000000 -0.641421 0.141421
v -0.000000 -0.500000 0.200000
v -0.000000 -0.358579 0.141421
v 0.212132 -0.212132 -0.000000
v 0.253553 -0.253553 -0.141421
v 0.353553 -0.353553 -0.200000
v 0.453553 -0.453553 -0.141421
v 0.494975 -0.494975 -0.000000
v 0.453553 -0.453553 0.141421
v 0.353553 -0.353553 0.200000
v 0.253553 -0.253553 0.141421

vn -1.000000 0.000000 -0.000000
vn -0.707107 0.000000 -0.707107
vn 0.000000 0.000000 -1.000000
vn 0.707107 0.000000 -0.707107
vn 1.000000 0.000000 -0.000000
vn 0.707107 0.000000 0.707107
vn 0.000000 0.000000 1.000000
vn -0.707107 -0.000000 0.707107
vn -0.707107 -0.707107 -0.000000
vn -0.500000 -0.500000 -0.707107
vn 0.000000 0.000000 -1.000000
vn 0.500000 0.500000 -0.707107
vn 0.707107 0.707107 -0.000000
vn 0.500000 0.500000 0.707107
vn 0.000000 0.000000 1.000000
vn -0.500000 -0.500000 0.707107
vn -0.000000 -1.000000 -0.000000
vn -0.000000 -0.707107 -0.707107
vn 0.000000 0.000000 -1.000000
vn 0.000000 0.707107 -0.707107
vn 0.000000 1.000000 -0.000000
vn 0.000000 0.707107 0.707107
vn 0.000000 0.000000 1.000000
vn -0.000000 -0.707107 0.707107
vn 0.707107 -0.707107 -0.000000
vn 0.500000 -0.500000 -0.707107
vn -0.000000 0.000000 -1.000000
vn -0.500000 0.500000 -0.707107
vn -0.707107 0.707107 -0.000000
vn -0.500000 0.500000 0.707107
vn -0.000000 0.000000 1.000000
vn 0.500000 -0.500000 0.707107
vn 1.000000 -0.000000 -0.000000
vn 0.707107 -0.000000 -0.707107
vn -0.000000 0.000000 -1.000000
vn -0.707107 0.000000 -0.707107
vn -1.000000 0.000000 -0.000000
vn -0.707107 0.000000 0.707107
vn -0.000000 0.000000 1.000000
vn 0.707107 -0.000000 0.707107
vn 0.707107 0.707107 -0.000000
vn 0.500000 0.500000 -0.707107
vn -0.000000 -0.000000 -1.000000
vn -0.500000 -0.500000 -0.707107
vn -0.707107 -0.707107 -0.000000
vn -0.500000 -0.500000 0.707107
vn -0.000000 -0.000000 1.000000
vn 0.500000 0.500000 0.707107
vn 0.000000 1.000000 -0.000000
vn 0.000000 0.707107 -0.707107
vn -0.000000 -0.000000 -1.000000
vn -0.000000 -0.707107 -0.707107
vn -0.000000 -1.000000 -0.000000
vn -0.000000 -0.707107 0.707107
vn -0.000000 -0.000000 1.000000
vn 0.000000 0.707107 0.707107
vn -0.707107 0.707107 -0.000000
vn -0.500000 0.500000 -0.707107
vn 0.000000 -0.000000 -1.000000
vn 0.500000 -0.500000 -0.707107
vn 0.707107 -0.707107 -0.000000
vn 0.500000 -0.500000 0.707107
vn 0.000000 -0.000000 1.000000
vn -0.500000 0.500000 0.707107

f 1//1 9//9 10//10 2//2 
f 2//2 10//10 11//11 3//3 
f 3//3 11//11 12//12 4//4 
f 5//5 4//4 12//12 
f 5//5 12//12 13//13 
f 5//5 13//13 14//14 
f 5//5 14//14 6//6 
f 6//6 14//14 15//15 7//7 
f 7//7 15//15 16//16 8//8 
f 8//8 16//16 9//9 1//1 
f 9//9 17//17 18//18 10//10 
f 10//10 18//18 19//19 11//11 
f 11//11 19//19 20//20 12//12 
f 12//12 20//20 21//21 13//13 
f 13//13 21//21 22//22 14//14 
f 14//14 22//22 23//23 15//15 
f 15//15 23//23 24//24 16//16 
f 16//16 24//24 17//17 9//9 
f 17//17 25//25 26//26 18//18 
f 18//18 26//26 27//27 19//19 
f 19//19 27//27 28//28 20//20 
f 20//20 28//28 29//29 21//21 
f 21//21 29//29 30//30 22//22 
f 22//22 30//30 31//31 23//23 
f 23//23 31//31 32//32 24//24 
f 24//24 32//32 25//25 17//17 
f 25//25 33//33 26//26 
f 33//33 34//34 26//26 
f 26//26 34//34 35//35 27//27 
f 27//27 35//35 36//36 28//28 
f 28//28 36//36 37//37 29//29 
f 29//29 37//37 38//38 30//30 
f 30//30 38//38 39//39 31//31 
f 31//31 39//39 40//40 32//32 
f 32//32 33//33 25//25 
f 40//40 33//33 32//32 
f 33//33 41//41 42//42 
f 42//42 34//34 33//33 
f 34//34 42//42 43//43 35//35 
f 35//35 43//43 44//44 36//36 
f 36//36 44//44 45//45 37//37 
f 37//37 45//45 46//46 38//38 
f 38//38 46//46 47//47 39//39 
f 39//39 47//47 48//48 40//40 
f 40//40 48//48 33//33 
f 48//48 41//41 33//33 
f 41//41 49//49 50//50 42//42 
f 42//42 50//50 51//51 43//43 
f 43//43 51//51 52//52 44//44 
f 44//44 52//52 53//53 45//45 
f 45//45 53//53 54//54 46//46 
f 46//46 54//54 55//55 47//47 
f 47//47 55//55 56//56 48//48 
f 48//48 56//56 49//49 41//41 
f 49//49 57//57 58//58 50//50 
f 50//50 58//58 59//59 51//51 
f 51//51 59//59 60//60 52//52 
f 52//52 60//60 61//61 53//53 
f 53//53 61//61 62//62 54//54 
f 54//54 62//62 63//63 55//55 
f 55//55 63//63 64//64 56//56 
f 56//56 64//64 57//57 49//49 
f 57//57 1//1 2//2 58//58 
f 58//58 2//2 3//3 59//59 
f 59//59 3//3 4//4 60//60 
f 60//60 4//4 5//5
f 5//5 61//61 60//60 
f 5//5 6//6 62//62 
f 62//62 61//61 5//5 
f 62//62 6//6 7//7 63//63 
f 63//63 7//7 8//8 64//64 
f 64//64 8//8 1//1 57//57 


#  List of boundary/crease edges (StartID, EndID, EdgeType):

#  List of boundary/crease/sharp vertices (VertexID, VertexType):
